<svg xmlns="http://www.w3.org/2000/svg" version="1.1" id="LOGO" x="0px" y="0px" viewBox="0 0 432.2 190.4" enable-background="new 0 0 432.2 190.4" xml:space="preserve"><g><image overflow="visible" opacity="0.3" width="910" height="907" transform="matrix(6.000000e-002 0 0 6.000000e-002 51.7792 135.3928)"/><g><path fill="#1D6EFF" d="M78.2 137.4c0.5-0.8 1.2-0.8 1.7 0l7.6 13.9c0.5 0.8 1.5 1.9 2.4 2.4l14 7.6c0.9 0.5 0.9 1.2 0 1.7l-14 7.6c-0.9 0.5-1.9 1.5-2.4 2.4l-7.6 13.9c-0.5 0.8-1.2 0.8-1.7 0L70.6 173c-0.5-0.8-1.5-1.9-2.4-2.4l-14-7.6c-0.8-0.5-0.8-1.2 0-1.7l14-7.6c0.8-0.5 1.9-1.5 2.4-2.4L78.2 137.4z"/></g></g><g><image overflow="visible" opacity="0.3" width="1831" height="1824" transform="matrix(6.000000e-002 0 0 6.000000e-002 -3.250453e-004 29.4417)"/><g><path fill="#4599FF" d="M53.2 32.2c1-1.8 2.6-1.8 3.5 0l15.9 29c1 1.8 3.2 4 5 5L106.7 82c1.8 1 1.8 2.5 0 3.5l-29.1 15.9c-1.8 1-4 3.2-5 5l-15.9 29c-1 1.8-2.5 1.8-3.5 0l-15.9-29c-1-1.8-3.2-4-5-5L3.1 85.5c-1.8-1-1.8-2.5 0-3.5l29.1-15.9c1.8-1 4-3.2 5-5L53.2 32.2z"/></g></g><g><image overflow="visible" opacity="0.3" width="910" height="907" transform="matrix(6.000000e-002 0 0 6.000000e-002 83.6057 2.500000e-005)"/><g><path fill="#44BAFF" d="M110.1 2c0.5-0.8 1.2-0.8 1.7 0l7.6 13.9c0.5 0.8 1.5 1.9 2.4 2.4l14 7.6c0.8 0.5 0.8 1.2 0 1.7l-14 7.6c-0.9 0.5-1.9 1.5-2.4 2.4l-7.6 13.9c-0.5 0.8-1.2 0.8-1.7 0l-7.6-13.9c-0.5-0.8-1.5-1.9-2.4-2.4l-14-7.6c-0.9-0.5-0.9-1.2 0-1.7l14-7.6c0.8-0.5 1.9-1.5 2.4-2.4L110.1 2z"/></g></g><g><image overflow="visible" opacity="0.3" width="910" height="907" transform="matrix(6.000000e-002 0 0 6.000000e-002 129.0678 54.973)"/><g><path fill="#37DAFF" d="M155.5 57c0.5-0.8 1.2-0.8 1.7 0l7.6 13.9c0.5 0.8 1.5 1.9 2.4 2.4l14 7.6c0.8 0.5 0.8 1.2 0 1.7l-14 7.6c-0.9 0.5-1.9 1.5-2.4 2.4l-7.6 13.9c-0.5 0.8-1.2 0.8-1.7 0l-7.6-13.9c-0.5-0.8-1.5-1.9-2.4-2.4l-14-7.6c-0.8-0.5-0.8-1.2 0-1.7l14-7.6c0.8-0.5 1.9-1.5 2.4-2.4L155.5 57z"/></g></g><g><path fill="#FFFFFF" d="M106.6 180.7c-20.8 0-35.4-12.8-41-35.9 -2.8-11.7-6.1-18.9-14.6-21.1 -4.7-1.3-7.4-4.3-7.4-8.4 0-2.9 1.7-5.6 4.7-7.7 3.2-2.2 7.3-3.3 11.8-3.3 10.7 0 18 6.4 20.6 9.1l0.3 0.3 0.1-0.4c3.3-10.4 6.1-17.3 9.9-25.7l0-0.1 0-0.1c-5.7-12.4-6.9-20.7-6.9-25.5 0-6.3 3.1-13.2 10-13.2 4.5 0 8.7 4.3 12.6 13.1l0.2 0.3 0.2-0.3c3.2-4.1 7-6.5 10.2-6.5 5.3 0 8.6 3.9 8.6 10.2 0 5.8-3 12.4-6 18.7 -1 2.1-1.9 4.2-2.7 6.1l0 0.1 3.6 8.6 0.2-0.1c1.4-0.6 2.9-0.9 4.4-0.9 1.2 0 2.3 0.2 3.4 0.6 4.2 1.6 6.4 6.1 5.8 12.1l-0.1 0.6 0.4-0.4c1.3-1.3 3.9-2 5.1-2 2.7 0 4.9 1 6.5 3 2.4 2.9 3.1 7.8 2 13.3 -0.3 1.4-0.8 3.4-1.6 5.2l0 0.1 0 0.1c0.5 3 0.9 5.6 0.9 8.9C147.9 162.2 129.4 180.7 106.6 180.7z"/><path d="M140 108.5c-1.2 0-3.9 0.7-5.3 2.1 0.5-6.2-1.8-10.7-6-12.3 -2.6-0.9-5.5-0.7-7.9 0.4l-3.4-8.3c3.2-7.8 8.7-17.2 8.7-24.9 0-6-3-10.4-8.8-10.4 -3.5 0-7.4 2.9-10.4 6.6 -4-9-8.3-13.2-12.9-13.2 -7.2 0-10.2 7.2-10.2 13.4 0 5.1 1.4 13.6 6.9 25.5 -3.7 8.3-6.5 15.1-9.9 25.7 -4.4-4.6-11.6-9.2-20.8-9.2 -4.8 0-8.8 1.2-12 3.4 -3 2.1-4.8 4.9-4.8 7.9 0 4.4 3 7.4 7.6 8.6 7.9 2.1 11.4 8.5 14.4 21 5.5 22.5 19.5 36.1 41.2 36.1 22.9 0 41.6-18.7 41.6-41.6 0-3.3-0.4-6-0.9-9 0.7-1.8 1.2-3.7 1.6-5.3C150.8 115.4 147.1 108.5 140 108.5M126.9 103.2c3.7 1.7 4 9.4 0.3 18.5 -3 8.8-7.3 14.2-11.3 14.2 -3.2 0-5.8-2.2-5.8-8.2C110.1 116.5 119.3 99.7 126.9 103.2M88.9 61.9c0-3.7 1.6-8.1 5.1-8.1 2.5 0 5.5 3.9 9 11.6 -3 3.9-6.2 9-9.3 15.3C90.5 72.4 88.9 66.3 88.9 61.9M106.6 175.7c-18.5 0-31.2-12.9-36.1-32.1 -3.3-13.2-7.6-22-18.3-24.8 -1.2-0.4-3.5-1.2-3.5-3.5 0-2.5 4.1-6 11.4-6 8.8 0 16 5.4 21 12.5l3.8-1.4c0.6-7.2 4.2-17.1 10.7-30.9 8.1-17.4 16.3-29.3 21.8-29.2 1.7 0 3.8 2.1 3.8 5.1 0 7.2-6.4 18-11.9 29.8 -0.6 1.2-3.1 6.8-3.1 6.8l3.6 1.6c1.2-2 3.7-6.8 4-7.6l2.7 6c-5.8 4.9-10.9 16.6-10.9 25.7 0 6.7 3 10.9 7.4 12.3 4 1.2 7.9 0.1 10.9-3.5 0.7 4.2 3.5 7.9 9 7.9 4.8 0 8-2.8 10.4-7.5C144.1 159.1 125.7 175.7 106.6 175.7M144.1 124.4c-1.2 7.4-5.7 15.6-11.3 15.6 -5.3 0-5-7-3.7-11.2 1.9-7.6 7.1-15.5 11-15.5C143.5 113.3 145.1 118.1 144.1 124.4M125.4 161.5c-15.7 8.9-30.3 3.2-35.8-13l4.6-2.1c4.5 13.2 17.4 16.9 29.4 10.6L125.4 161.5zM121.1 127.6c0 2.3-1.8 4.1-4.1 4.1 -2.3 0-4.1-1.8-4.1-4.1 0-2.3 1.8-4.1 4.1-4.1C119.3 123.5 121.1 125.3 121.1 127.6M138.3 132.5c0 2-1.6 3.7-3.7 3.7 -2 0-3.7-1.6-3.7-3.7 0-2 1.6-3.7 3.7-3.7C136.7 128.8 138.3 130.5 138.3 132.5"/></g><path d="M200.6 58.4h-9.3v-7.1H218v7.1h-9.2v23.3h-8.2V58.4z"/><path d="M219.9 51.4h8.1v11.1h11.2V51.4h8.1v30.4h-8.1V69.9H228v11.9h-8.1V51.4z"/><path d="M250.9 51.4h21.9v7H259V63h11.3v6.6H259v5.2h14.8v7h-22.8V51.4z"/><path d="M191.5 88.5h7.3l11.7 16.9V88.5h8v30.4h-6.9l-12.1-17.4v17.4h-8V88.5z"/><path d="M230.6 88.5h9.2l10.8 30.4h-8.7l-2-6.3h-10.2l-2 6.3h-8.3L230.6 88.5zM238.3 106.7l-3.4-11.2 -3.5 11.2H238.3z"/><path d="M254.3 95.5H245v-7.1h26.7v7.1h-9.2v23.3h-8.2V95.5z"/><path d="M273.6 88.5h8.1v30.4h-8.1V88.5z"/><path d="M300.4 119.6c-2.3 0-4.4-0.4-6.3-1.2 -1.9-0.8-3.6-1.9-5-3.3 -1.4-1.4-2.5-3.1-3.3-5.1 -0.8-2-1.2-4.1-1.2-6.4s0.4-4.4 1.2-6.4c0.8-2 1.9-3.6 3.3-5.1 1.4-1.4 3.1-2.5 5-3.3 1.9-0.8 4-1.2 6.3-1.2 2.3 0 4.4 0.4 6.3 1.2 1.9 0.8 3.6 1.9 5 3.3 1.4 1.4 2.5 3.1 3.3 5.1 0.8 2 1.2 4.1 1.2 6.4s-0.4 4.4-1.2 6.4c-0.8 2-1.9 3.6-3.3 5.1 -1.4 1.4-3.1 2.5-5 3.3C304.8 119.2 302.7 119.6 300.4 119.6zM300.4 112c1.2 0 2.2-0.2 3.2-0.7 0.9-0.4 1.7-1 2.3-1.8 0.6-0.8 1.1-1.7 1.5-2.7 0.3-1 0.5-2.1 0.5-3.3s-0.2-2.2-0.5-3.3c-0.3-1-0.8-1.9-1.5-2.7 -0.6-0.8-1.4-1.4-2.3-1.8 -0.9-0.4-2-0.7-3.2-0.7 -1.2 0-2.2 0.2-3.2 0.7 -0.9 0.4-1.7 1-2.3 1.8 -0.6 0.8-1.1 1.7-1.5 2.7 -0.3 1-0.5 2.1-0.5 3.3s0.2 2.2 0.5 3.3c0.3 1 0.8 1.9 1.5 2.7 0.6 0.8 1.4 1.4 2.3 1.8C298.2 111.8 299.2 112 300.4 112z"/><path d="M319.2 88.5h7.3l11.7 16.9V88.5h8v30.4h-6.9l-12.1-17.4v17.4h-8V88.5z"/><path d="M358.3 88.5h9.2l10.8 30.4h-8.7l-2-6.3h-10.2l-2 6.3h-8.3L358.3 88.5zM366 106.7l-3.4-11.2 -3.5 11.2H366z"/><path d="M379.4 88.5h8.1v23.3h14.1v7.1h-22.1V88.5z"/><path d="M191.7 125.5h8.1v23.3h14.1v7.1h-22.1V125.5z"/><path d="M229.4 156.6c-2.3 0-4.4-0.4-6.3-1.2 -1.9-0.8-3.6-1.9-5-3.3 -1.4-1.4-2.5-3.1-3.3-5.1 -0.8-2-1.2-4.1-1.2-6.4 0-2.3 0.4-4.4 1.2-6.4s1.9-3.6 3.3-5.1c1.4-1.4 3.1-2.5 5-3.3 1.9-0.8 4-1.2 6.3-1.2 2.3 0 4.4 0.4 6.3 1.2 1.9 0.8 3.6 1.9 5 3.3 1.4 1.4 2.5 3.1 3.3 5.1 0.8 2 1.2 4.1 1.2 6.4 0 2.3-0.4 4.4-1.2 6.4 -0.8 2-1.9 3.6-3.3 5.1 -1.4 1.4-3.1 2.5-5 3.3C233.8 156.2 231.7 156.6 229.4 156.6zM229.4 149.1c1.2 0 2.2-0.2 3.2-0.7 0.9-0.4 1.7-1 2.3-1.8 0.6-0.8 1.1-1.7 1.5-2.7 0.3-1 0.5-2.1 0.5-3.3 0-1.2-0.2-2.2-0.5-3.3 -0.3-1-0.8-1.9-1.5-2.7 -0.6-0.8-1.4-1.4-2.3-1.8 -0.9-0.4-2-0.7-3.2-0.7 -1.2 0-2.2 0.2-3.2 0.7 -0.9 0.4-1.7 1-2.3 1.8 -0.6 0.8-1.1 1.7-1.5 2.7 -0.3 1-0.5 2.1-0.5 3.3 0 1.2 0.2 2.2 0.5 3.3 0.3 1 0.8 1.9 1.5 2.7 0.6 0.8 1.4 1.4 2.3 1.8C227.1 148.9 228.2 149.1 229.4 149.1z"/><path d="M254.3 132.6H245v-7.1h26.7v7.1h-9.2v23.3h-8.2V132.6z"/><path d="M282.6 132.6h-9.3v-7.1H300v7.1h-9.2v23.3h-8.2V132.6z"/><path d="M301.9 125.5h21.9v7H310v4.7h11.3v6.6H310v5.2h14.8v7h-22.8V125.5z"/><path d="M327.3 125.5h12.6c1.6 0 3.1 0.2 4.4 0.6 1.3 0.4 2.5 1.1 3.4 1.9 0.9 0.8 1.7 1.9 2.2 3.1 0.5 1.2 0.8 2.7 0.8 4.3 0 2-0.4 3.7-1.3 5.2 -0.9 1.5-2 2.6-3.5 3.5l6.5 11.7h-8.7l-5.1-10.3h-3.4v10.3h-7.9V125.5zM339.1 139.2c1.1 0 1.9-0.3 2.6-1 0.7-0.7 1-1.5 1-2.6 0-1.2-0.3-2.1-1-2.7 -0.6-0.7-1.5-1-2.7-1h-3.9v7.3H339.1z"/><path d="M360.1 143.8l-10.8-18.3h9.2l5.9 10.8 5.6-10.8h9l-10.8 18.2v12.2h-8.1V143.8z"/><g><path d="M388 140.7c-1.1 0-2.1-0.2-3-0.6 -0.9-0.4-1.7-0.9-2.4-1.6 -0.7-0.7-1.2-1.5-1.6-2.4 -0.4-0.9-0.6-1.9-0.6-3 0-1.1 0.2-2.1 0.6-3 0.4-0.9 0.9-1.7 1.6-2.4 0.7-0.7 1.5-1.2 2.4-1.6 0.9-0.4 1.9-0.6 3-0.6 1.1 0 2 0.2 3 0.6 0.9 0.4 1.7 0.9 2.4 1.6 0.7 0.7 1.2 1.5 1.6 2.4 0.4 0.9 0.6 1.9 0.6 3 0 1.1-0.2 2-0.6 3 -0.4 0.9-0.9 1.7-1.6 2.4 -0.7 0.7-1.5 1.2-2.4 1.6C390 140.5 389 140.7 388 140.7zM388 139.3c0.9 0 1.7-0.2 2.4-0.5 0.7-0.3 1.4-0.7 1.9-1.3 0.5-0.6 0.9-1.2 1.2-1.9 0.3-0.7 0.4-1.5 0.4-2.4 0-0.9-0.1-1.7-0.4-2.4 -0.3-0.7-0.7-1.4-1.2-2 -0.5-0.6-1.2-1-1.9-1.3 -0.7-0.3-1.5-0.5-2.4-0.5 -0.9 0-1.6 0.2-2.4 0.5 -0.7 0.3-1.4 0.8-1.9 1.3 -0.5 0.6-1 1.2-1.3 2 -0.3 0.7-0.4 1.5-0.4 2.4 0 0.9 0.1 1.7 0.4 2.4 0.3 0.7 0.7 1.4 1.2 1.9 0.5 0.5 1.2 1 1.9 1.3C386.3 139.1 387.1 139.3 388 139.3zM385.3 129.2h3c0.5 0 0.9 0.1 1.2 0.2 0.3 0.1 0.6 0.3 0.9 0.5 0.2 0.2 0.4 0.5 0.5 0.7 0.1 0.3 0.1 0.5 0.1 0.8 0 0.5-0.1 0.9-0.4 1.3 -0.2 0.4-0.6 0.7-1.1 0.9l1.9 3.2h-1.7l-1.7-3h-1.2v3h-1.5V129.2zM388.2 132.8c0.4 0 0.8-0.1 1-0.3 0.2-0.2 0.3-0.5 0.3-0.9 0-0.4-0.1-0.7-0.3-0.9 -0.2-0.2-0.6-0.3-1-0.3h-1.4v2.3H388.2z"/></g></svg>